<svg width="100" height="100" viewBox="0 0 100 100" fill="none" xmlns="http://www.w3.org/2000/svg">
<path d="M49.6667 0C44.1949 0 38.7768 1.07774 33.7215 3.17169C28.6663 5.26563 24.073 8.33478 20.2039 12.2039C12.3899 20.0179 8 30.616 8 41.6667C8 60.0833 19.9583 75.7083 36.5 81.25C38.5833 81.5833 39.25 80.2917 39.25 79.1667V72.125C27.7083 74.625 25.25 66.5417 25.25 66.5417C23.3333 61.7083 20.625 60.4167 20.625 60.4167C16.8333 57.8333 20.9167 57.9167 20.9167 57.9167C25.0833 58.2083 27.2917 62.2083 27.2917 62.2083C30.9167 68.5417 37.0417 66.6667 39.4167 65.6667C39.7917 62.9583 40.875 61.125 42.0417 60.0833C32.7917 59.0417 23.0833 55.4583 23.0833 39.5833C23.0833 34.9583 24.6667 31.25 27.375 28.2917C26.9583 27.25 25.5 22.9167 27.7917 17.2917C27.7917 17.2917 31.2917 16.1667 39.25 21.5417C42.5417 20.625 46.125 20.1667 49.6667 20.1667C53.2083 20.1667 56.7917 20.625 60.0833 21.5417C68.0417 16.1667 71.5417 17.2917 71.5417 17.2917C73.8333 22.9167 72.375 27.25 71.9583 28.2917C74.6667 31.25 76.25 34.9583 76.25 39.5833C76.25 55.5 66.5 59 57.2083 60.0417C58.7083 61.3333 60.0833 63.875 60.0833 67.75V79.1667C60.0833 80.2917 60.75 81.625 62.875 81.25C79.4167 75.6667 91.3333 60.0833 91.3333 41.6667C91.3333 36.1949 90.2556 30.7768 88.1616 25.7215C86.0677 20.6663 82.9986 16.073 79.1294 12.2039C75.2603 8.33478 70.667 5.26563 65.6118 3.17169C60.5566 1.07774 55.1384 0 49.6667 0Z" fill="white"/>
</svg>
