<svg width="84" height="66" viewBox="0 0 84 66" fill="none" xmlns="http://www.w3.org/2000/svg">
<path d="M75 57.7771H66.6667V22.0878L41.6667 37.3832L16.6667 22.0878V57.7771H8.33333V8.83185H13.3333L41.6667 26.1666L70 8.83185H75M75 0.674316H8.33333C3.70833 0.674316 0 4.30442 0 8.83185V57.7771C0 59.9406 0.877973 62.0155 2.44078 63.5453C4.00358 65.0751 6.1232 65.9346 8.33333 65.9346H75C77.2101 65.9346 79.3297 65.0751 80.8926 63.5453C82.4554 62.0155 83.3333 59.9406 83.3333 57.7771V8.83185C83.3333 6.66834 82.4554 4.59344 80.8926 3.0636C79.3297 1.53377 77.2101 0.674316 75 0.674316Z" fill="white"/>
</svg>
